<svg width="18" height="14" viewBox="0 0 18 14" fill="none" xmlns="http://www.w3.org/2000/svg">
<path d="M7.92462 0.853553C8.11988 1.04882 8.11988 1.3654 7.92462 1.56066L3.62244 5.86284H17.2882C17.5643 5.86284 17.7882 6.0867 17.7882 6.36284V7.36284C17.7882 7.63898 17.5643 7.86284 17.2882 7.86284H3.62019L7.92461 12.1673C8.11988 12.3625 8.11988 12.6791 7.92461 12.8744L7.21751 13.5815C7.02225 13.7767 6.70566 13.7767 6.5104 13.5815L0.146446 7.21751C-0.0488155 7.02225 -0.0488155 6.70567 0.146447 6.51041L6.51041 0.146447C6.70567 -0.0488155 7.02225 -0.0488156 7.21751 0.146447L7.92462 0.853553Z" fill="black" fill-opacity="0.95"/>
</svg>
