<svg width="24" height="24" viewBox="0 0 24 24" fill="none" xmlns="http://www.w3.org/2000/svg">
<path fill-rule="evenodd" clip-rule="evenodd" d="M11.5665 20.2482C9.9124 20.2482 7.35613 11.5 7.85613 9C7.85613 5 9.85613 5 11.8561 5C14.7077 5 16 5.5 15.8561 9C15.7882 10.6536 13.2205 20.2482 11.5665 20.2482ZM8.85613 8.5C8.85613 7 9.35613 5 11.8561 5C14.3561 5 15.3949 6.55536 15.3561 8.5C15.3174 10.4446 13.8561 11.5 11.8561 11.5C9.85613 11.5 8.85613 10 8.85613 8.5Z" fill="#FF375C"/>
<path fill-rule="evenodd" clip-rule="evenodd" d="M5 9C5 11.5464 7.19751 15.9121 11.5924 22.0969C11.6249 22.1426 11.6647 22.1825 11.7103 22.2149C11.9355 22.3749 12.2477 22.3221 12.4077 22.0969C16.8025 15.9121 19 11.5464 19 9C19 5.14001 15.859 2 12 2C8.14099 2 5 5.14001 5 9ZM7.85613 9C8.85613 6.5 8.00254 5 11.8561 5C15.1212 5 15.5 6.5 15.5 8C15.5 10.5 13.8929 16.582 12 19.291C10.1071 16.583 7.85613 11.591 7.85613 9Z" fill="#FF375C"/>
</svg>
